<svg width="512" height="512" viewBox="0 0 680 680" xmlns="http://www.w3.org/2000/svg">
  <title>Sanmon</title>
  <defs>
    <clipPath id="circleClip">
      <circle cx="340" cy="340" r="300"/>
    </clipPath>
    <style>
      .bg { fill: #f5e9d3; }
      .gate { fill: #1a1a1a; }
      .accent { fill: #c8392c; }
    </style>
  </defs>

  <circle cx="340" cy="340" r="300" class="bg"/>

  <g clip-path="url(#circleClip)">
    <circle cx="340" cy="320" r="90" class="accent"/>

    <rect x="40" y="560" width="600" height="6" class="gate"/>

    <rect x="180" y="340" width="38" height="220" class="gate"/>
    <rect x="462" y="340" width="38" height="220" class="gate"/>

    <rect x="168" y="554" width="62" height="14" class="gate"/>
    <rect x="450" y="554" width="62" height="14" class="gate"/>

    <rect x="150" y="430" width="380" height="16" class="gate"/>
    <rect x="130" y="335" width="420" height="22" class="gate"/>

    <rect x="160" y="318" width="20" height="20" class="gate"/>
    <rect x="220" y="318" width="20" height="20" class="gate"/>
    <rect x="280" y="318" width="20" height="20" class="gate"/>
    <rect x="340" y="318" width="20" height="20" class="gate"/>
    <rect x="400" y="318" width="20" height="20" class="gate"/>
    <rect x="460" y="318" width="20" height="20" class="gate"/>
    <rect x="500" y="318" width="20" height="20" class="gate"/>

    <path d="M 90 318 Q 90 290 130 285 L 550 285 Q 590 290 590 318 Q 540 305 340 305 Q 140 305 90 318 Z" class="gate"/>

    <rect x="240" y="240" width="18" height="18" class="gate"/>
    <rect x="290" y="240" width="18" height="18" class="gate"/>
    <rect x="340" y="240" width="18" height="18" class="gate"/>
    <rect x="390" y="240" width="18" height="18" class="gate"/>
    <rect x="422" y="240" width="18" height="18" class="gate"/>

    <rect x="220" y="258" width="240" height="14" class="gate"/>

    <path d="M 180 240 Q 180 215 220 210 L 460 210 Q 500 215 500 240 Q 460 228 340 228 Q 220 228 180 240 Z" class="gate"/>

    <rect x="320" y="180" width="40" height="32" class="gate"/>
    <rect x="328" y="160" width="24" height="22" class="gate"/>
    <circle cx="340" cy="155" r="8" class="gate"/>

    <rect x="100" y="318" width="480" height="3" fill="#f5e9d3" opacity="0.25"/>
    <rect x="190" y="240" width="300" height="3" fill="#f5e9d3" opacity="0.25"/>
  </g>

  <circle cx="340" cy="340" r="300" fill="none" stroke="#1a1a1a" stroke-width="6"/>
</svg>
